<svg width="44" height="45" viewBox="0 0 44 45" fill="none" xmlns="http://www.w3.org/2000/svg">
<circle cx="22" cy="22.2126" r="22" fill="#08C9C9" fill-opacity="0.2"/>
<path d="M22.4825 29.074L27.9988 32.569C28.704 33.0157 29.5794 32.3513 29.3702 31.5282L27.7764 25.2585C27.7315 25.0839 27.7368 24.9002 27.7917 24.7284C27.8466 24.5567 27.9489 24.404 28.0868 24.2877L33.0335 20.1705C33.6835 19.6295 33.348 18.5508 32.5129 18.4966L26.0528 18.0773C25.8788 18.0649 25.7119 18.0033 25.5716 17.8997C25.4312 17.7961 25.3232 17.6547 25.2601 17.4921L22.8507 11.4247C22.7852 11.2521 22.6688 11.1035 22.5168 10.9987C22.3649 10.8938 22.1846 10.8376 22 10.8376C21.8154 10.8376 21.6351 10.8938 21.4832 10.9987C21.3312 11.1035 21.2148 11.2521 21.1493 11.4247L18.74 17.4921C18.6768 17.6547 18.5688 17.7961 18.4285 17.8997C18.2881 18.0033 18.1212 18.0649 17.9472 18.0773L11.4871 18.4966C10.652 18.5508 10.3165 19.6295 10.9665 20.1705L15.9132 24.2877C16.0511 24.404 16.1534 24.5567 16.2083 24.7284C16.2632 24.9002 16.2685 25.0839 16.2236 25.2585L14.7455 31.0729C14.4944 32.0607 15.545 32.858 16.3912 32.3219L21.5175 29.074C21.6617 28.9822 21.8291 28.9335 22 28.9335C22.1709 28.9335 22.3383 28.9822 22.4825 29.074V29.074Z" stroke="#08C9C9" stroke-width="1.5" stroke-linecap="round" stroke-linejoin="round"/>
</svg>
