<svg width="38" height="38" viewBox="0 0 38 38" fill="none" xmlns="http://www.w3.org/2000/svg">
<circle cx="19" cy="19.0215" r="18" stroke="#3F3E42"/>
<path d="M25.8329 13.6509C25.8329 14.4598 25.1772 15.1155 24.3683 15.1155C23.5595 15.1155 22.9037 14.4598 22.9037 13.6509C22.9037 12.842 23.5595 12.1863 24.3683 12.1863C25.1772 12.1863 25.8329 12.842 25.8329 13.6509Z" fill="#3F3E42"/>
<path fill-rule="evenodd" clip-rule="evenodd" d="M18.9981 23.9031C21.6944 23.9031 23.8801 21.7173 23.8801 19.0211C23.8801 16.3248 21.6944 14.1391 18.9981 14.1391C16.3019 14.1391 14.1161 16.3248 14.1161 19.0211C14.1161 21.7173 16.3019 23.9031 18.9981 23.9031ZM18.9981 21.9503C20.6159 21.9503 21.9273 20.6388 21.9273 19.0211C21.9273 17.4033 20.6159 16.0919 18.9981 16.0919C17.3804 16.0919 16.0689 17.4033 16.0689 19.0211C16.0689 20.6388 17.3804 21.9503 18.9981 21.9503Z" fill="#3F3E42"/>
<path fill-rule="evenodd" clip-rule="evenodd" d="M9.23413 18.6305C9.23413 15.3495 9.23413 13.709 9.87266 12.4558C10.4343 11.3535 11.3305 10.4573 12.4329 9.89561C13.6861 9.25708 15.3266 9.25708 18.6076 9.25708H19.3887C22.6697 9.25708 24.3102 9.25708 25.5634 9.89561C26.6657 10.4573 27.5619 11.3535 28.1236 12.4558C28.7621 13.709 28.7621 15.3495 28.7621 18.6305V19.4116C28.7621 22.6927 28.7621 24.3332 28.1236 25.5863C27.5619 26.6887 26.6657 27.5849 25.5634 28.1466C24.3102 28.7851 22.6697 28.7851 19.3887 28.7851H18.6076C15.3266 28.7851 13.6861 28.7851 12.4329 28.1466C11.3305 27.5849 10.4343 26.6887 9.87266 25.5863C9.23413 24.3332 9.23413 22.6927 9.23413 19.4116V18.6305ZM18.6076 11.2099H19.3887C21.0614 11.2099 22.1985 11.2114 23.0775 11.2832C23.9336 11.3532 24.3714 11.4799 24.6768 11.6356C25.4117 12.01 26.0092 12.6075 26.3836 13.3424C26.5393 13.6478 26.666 14.0856 26.736 14.9418C26.8078 15.8207 26.8093 16.9578 26.8093 18.6305V19.4116C26.8093 21.0844 26.8078 22.2215 26.736 23.1004C26.666 23.9565 26.5393 24.3944 26.3836 24.6998C26.0092 25.4347 25.4117 26.0322 24.6768 26.4066C24.3714 26.5622 23.9336 26.689 23.0775 26.7589C22.1985 26.8308 21.0614 26.8323 19.3887 26.8323H18.6076C16.9348 26.8323 15.7977 26.8308 14.9188 26.7589C14.0627 26.689 13.6248 26.5622 13.3194 26.4066C12.5845 26.0322 11.9871 25.4347 11.6126 24.6998C11.457 24.3944 11.3302 23.9565 11.2603 23.1004C11.1884 22.2215 11.1869 21.0844 11.1869 19.4116V18.6305C11.1869 16.9578 11.1884 15.8207 11.2603 14.9418C11.3302 14.0856 11.457 13.6478 11.6126 13.3424C11.9871 12.6075 12.5845 12.01 13.3194 11.6356C13.6248 11.4799 14.0627 11.3532 14.9188 11.2832C15.7977 11.2114 16.9348 11.2099 18.6076 11.2099Z" fill="#3F3E42"/>
</svg>
