<svg width="36" height="37" viewBox="0 0 36 37" fill="none" xmlns="http://www.w3.org/2000/svg">
<circle cx="18" cy="18.0215" r="18" fill="#007979"/>
<path d="M26 13.5215C25.4 13.8215 24.8 13.9215 24.1 14.0215C24.8 13.6215 25.3 13.0215 25.5 12.2215C24.9 12.6215 24.2 12.8215 23.4 13.0215C22.8 12.4215 21.9 12.0215 21 12.0215C19.3 12.0215 17.8 13.5215 17.8 15.3215C17.8 15.6215 17.8 15.8215 17.9 16.0215C15.2 15.9215 12.7 14.6215 11.1 12.6215C10.8 13.1215 10.7 13.6215 10.7 14.3215C10.7 15.4215 11.3 16.4215 12.2 17.0215C11.7 17.0215 11.2 16.8215 10.7 16.6215C10.7 18.2215 11.8 19.5215 13.3 19.8215C13 19.9215 12.7 19.9215 12.4 19.9215C12.2 19.9215 12 19.9215 11.8 19.8215C12.2 21.1215 13.4 22.1215 14.9 22.1215C13.8 23.0215 12.4 23.5215 10.8 23.5215C10.5 23.5215 10.3 23.5215 10 23.5215C11.5 24.4215 13.2 25.0215 15 25.0215C21 25.0215 24.3 20.0215 24.3 15.7215C24.3 15.6215 24.3 15.4215 24.3 15.3215C25 14.8215 25.6 14.2215 26 13.5215Z" fill="white"/>
</svg>
