<svg width="36" height="37" viewBox="0 0 36 37" fill="none" xmlns="http://www.w3.org/2000/svg">
<circle cx="18" cy="18.0215" r="17.5" stroke="#3F3E42"/>
<g clip-path="url(#clip0_1_1344)">
<path d="M26.607 13.9865C26.3712 13.2005 25.821 12.5717 25.0349 12.4145C23.6201 12.0215 17.9607 12.0215 17.9607 12.0215C17.9607 12.0215 12.3799 12.0215 10.9651 12.4145C10.179 12.6503 9.55022 13.2791 9.39301 13.9865C9 15.4014 9 18.3097 9 18.3097C9 18.3097 9 21.218 9.39301 22.6328C9.62882 23.4189 10.179 24.0477 10.9651 24.2049C12.3799 24.5979 17.9607 24.5979 17.9607 24.5979C17.9607 24.5979 23.6201 24.5979 24.9563 24.2049C25.7424 23.9691 26.3712 23.4189 26.5284 22.6328C26.9214 21.218 26.9214 18.3097 26.9214 18.3097C26.9214 18.3097 27 15.4014 26.607 13.9865ZM16.1528 20.9822V15.6372L20.869 18.3097L16.1528 20.9822Z" fill="#3F3E42"/>
</g>
<defs>
<clipPath id="clip0_1_1344">
<rect width="18" height="12.5764" fill="white" transform="translate(9 12.0215)"/>
</clipPath>
</defs>
</svg>
