<svg width="59" height="60" viewBox="0 0 59 60" fill="none" xmlns="http://www.w3.org/2000/svg">
<path d="M59 29.5215C59 45.8139 45.7924 59.0215 29.5 59.0215C13.2076 59.0215 0 45.8139 0 29.5215C0 13.2291 13.2076 0.0214844 29.5 0.0214844C45.7924 0.0214844 59 13.2291 59 29.5215Z" fill="#7177E2"/>
<path d="M35.678 43.9534H24.3217H24.3221C23.6949 43.9534 23.1865 44.4617 23.1865 45.0889C23.1865 45.7161 23.6949 46.2245 24.3221 46.2245H26.7915H26.7912C27.1053 47.1154 27.7757 47.8355 28.6419 48.2126C29.5079 48.5898 30.4921 48.5898 31.3581 48.2126C32.2244 47.8355 32.8947 47.1154 33.2088 46.2245H35.6779H35.6776C36.3048 46.2245 36.8131 45.7161 36.8131 45.0889C36.8131 44.4617 36.3048 43.9534 35.6776 43.9534H35.678Z" fill="white"/>
<path d="M35.678 40.5464H24.3217H24.3221C23.6949 40.5464 23.1865 41.0551 23.1865 41.6823C23.1865 42.3091 23.6949 42.8178 24.3221 42.8178H35.6784H35.678C36.3052 42.8178 36.8136 42.3091 36.8136 41.6823C36.8136 41.0551 36.3052 40.5464 35.678 40.5464Z" fill="white"/>
<path d="M37.3556 32.4867C38.7175 30.6588 39.3499 28.3894 39.1296 26.121C38.9093 23.8523 37.8526 21.7466 36.1648 20.2147C34.477 18.6828 32.2792 17.834 29.9998 17.834C27.7205 17.834 25.5227 18.6828 23.8349 20.2147C22.1472 21.7465 21.0904 23.8522 20.8701 26.121C20.6498 28.3894 21.2822 30.6588 22.6441 32.4867L26.1077 37.1368L26.1107 37.1395H24.3216C23.6944 37.1395 23.1861 37.6482 23.1861 38.2751C23.1861 38.9023 23.6944 39.411 24.3216 39.411H35.6779H35.6776C36.3048 39.411 36.8131 38.9023 36.8131 38.2751C36.8131 37.6482 36.3048 37.1395 35.6776 37.1395H33.8885L33.8926 37.1368L37.3556 32.4867ZM31.1365 37.1396H28.8583L28.8613 37.1368V30.3235H27.1578H27.1581C26.5309 30.3235 26.0226 29.8152 26.0226 29.188C26.0226 28.5608 26.531 28.0524 27.1581 28.0524H32.8359C33.4632 28.0524 33.9718 28.5608 33.9718 29.188C33.9718 29.8152 33.4631 30.3235 32.8359 30.3235H31.1324V37.1368L31.1365 37.1396Z" fill="white"/>
<path d="M43.4294 33.4516L41.4625 32.3161C41.2014 32.1647 40.8911 32.1232 40.5996 32.201C40.3084 32.2784 40.0597 32.4688 39.909 32.7302C39.7579 32.9916 39.7175 33.3019 39.796 33.5931C39.8741 33.8846 40.0652 34.1326 40.3269 34.2827L42.2939 35.4182C42.5549 35.57 42.8653 35.6114 43.1568 35.5336C43.4479 35.4559 43.6966 35.2654 43.8474 35.004C43.9984 34.743 44.0388 34.4323 43.9604 34.1412C43.8823 33.85 43.6912 33.6016 43.4294 33.4516Z" fill="white"/>
<path d="M40.8966 21.855C41.0956 21.855 41.2909 21.8025 41.4632 21.7025L43.4301 20.567C43.9731 20.2532 44.1594 19.5589 43.8457 19.0159C43.5322 18.4726 42.8375 18.2866 42.2945 18.6L40.3276 19.7355C39.8823 19.9928 39.6654 20.5169 39.7987 21.0136C39.9319 21.5103 40.3824 21.8552 40.8966 21.8549V21.855Z" fill="white"/>
<path d="M29.9998 15.5636C30.627 15.5636 31.1353 15.0553 31.1353 14.4281V12.157C31.1353 11.5298 30.627 11.0215 29.9998 11.0215C29.3726 11.0215 28.8643 11.5298 28.8643 12.157V14.4281C28.8643 15.0553 29.3726 15.5636 29.9998 15.5636Z" fill="white"/>
<path d="M19.6716 19.735L17.7046 18.5995C17.1613 18.2861 16.467 18.4721 16.1532 19.0154C15.8398 19.5583 16.0258 20.2526 16.5691 20.5665L18.536 21.702C19.079 22.0155 19.7737 21.8295 20.0872 21.2865C20.4009 20.7432 20.2146 20.0489 19.6716 19.7351L19.6716 19.735Z" fill="white"/>
<path d="M18.5373 32.3158L16.5703 33.4513C16.3086 33.6014 16.1175 33.8497 16.0391 34.1409C15.9606 34.4321 16.0014 34.7428 16.1521 35.0038C16.3032 35.2652 16.5515 35.4556 16.843 35.5334C17.1345 35.6111 17.4449 35.5697 17.7059 35.4179L19.6729 34.2824C20.2141 33.9683 20.3991 33.275 20.086 32.7327C19.7729 32.1904 19.0802 32.0041 18.5373 32.3158L18.5373 32.3158Z" fill="white"/>
</svg>
