<svg width="59" height="60" viewBox="0 0 59 60" fill="none" xmlns="http://www.w3.org/2000/svg">
<circle cx="29.5" cy="29.5215" r="29.5" fill="#7177E2"/>
<path d="M47.3022 23.4344L30.3704 17.0848H30.3698C30.1302 17.0004 29.8687 17.0004 29.629 17.0848L12.6972 23.4344C12.2788 23.5864 12 23.9842 12 24.4294C12 24.8747 12.2788 25.2724 12.6972 25.4238L29.629 31.7735C29.8687 31.8584 30.1302 31.8584 30.3698 31.7735L43.7575 26.7467V40.3038C43.7575 40.8881 44.2313 41.3619 44.8156 41.3619C45.4 41.3619 45.8737 40.8881 45.8737 40.3038V25.9534L47.3022 25.4244L47.3028 25.4238C47.7212 25.2724 48 24.8746 48 24.4294C48 23.9841 47.7212 23.5864 47.3028 23.4344L47.3022 23.4344Z" fill="white"/>
<path d="M31.11 33.7527C30.3938 34.0203 29.6044 34.0203 28.8876 33.7527L19.416 30.1969V32.8952L26.1044 35.1175C26.6552 35.2818 26.9742 35.8544 26.8239 36.4092C26.6731 36.8589 26.2401 37.1533 25.7658 37.1287C25.6513 37.1259 25.5373 37.108 25.4273 37.0756L19.4161 35.0649V38.1867C19.415 38.6415 19.7049 39.0465 20.1357 39.1923L29.6603 42.3672C29.8799 42.4409 30.1179 42.4409 30.338 42.3672L39.8626 39.1923H39.8621C40.2934 39.0465 40.5833 38.6415 40.5822 38.1867V30.1968L31.11 33.7527Z" fill="white"/>
</svg>
