<svg width="59" height="60" viewBox="0 0 59 60" fill="none" xmlns="http://www.w3.org/2000/svg">
<circle cx="29.5" cy="29.5215" r="29.5" fill="#7177E2"/>
<path d="M17.1937 26.9355C17.8473 26.9355 18.3874 26.3956 18.3874 25.7418V20.6545C18.3874 19.4324 19.382 18.4092 20.6327 18.4092H25.72C26.3736 18.4092 26.9137 17.8693 26.9137 17.2154C26.9137 16.5616 26.3736 16.0217 25.72 16.0217H20.6327C18.0749 16.0217 16 18.0964 16 20.6544V25.7417C16 26.3953 16.5399 26.9354 17.1937 26.9354L17.1937 26.9355Z" fill="white"/>
<path d="M25.7208 40.6337H20.6335C19.4114 40.6337 18.3882 39.6391 18.3882 38.3884V33.3011C18.3882 32.6475 17.8483 32.1074 17.1944 32.1074C16.5406 32.1074 16.0007 32.6473 16.0007 33.3011V38.3884C16.0007 40.9462 18.0754 43.0211 20.6334 43.0211H25.7207C26.3743 43.0211 26.9144 42.4812 26.9144 41.8274C26.9144 41.1736 26.3743 40.6337 25.7207 40.6337L25.7208 40.6337Z" fill="white"/>
<path d="M41.807 32.1079C41.1534 32.1079 40.6132 32.6478 40.6132 33.3016V38.3889C40.6132 39.611 39.6186 40.6342 38.3679 40.6342H33.2806C32.627 40.6342 32.0869 41.1741 32.0869 41.8279C32.0869 42.4815 32.6268 43.0217 33.2806 43.0217H38.3679C40.9257 43.0217 43.0006 40.947 43.0006 38.389V33.3017C43.0006 32.6478 42.4605 32.108 41.8069 32.108L41.807 32.1079Z" fill="white"/>
<path d="M33.2806 18.4089H38.3679C39.5899 18.4089 40.6132 19.4035 40.6132 20.6542V25.7415C40.6132 26.3951 41.1531 26.9352 41.8069 26.9352C42.4605 26.9352 43.0006 26.3953 43.0006 25.7415V20.6542C43.0006 18.0964 40.926 16.0215 38.3679 16.0215H33.2806C32.627 16.0215 32.0869 16.5614 32.0869 17.2152C32.0869 17.8688 32.6268 18.4089 33.2806 18.4089L33.2806 18.4089Z" fill="white"/>
<path d="M31.1764 27.1341L28.6754 29.6352L27.567 28.5268C27.1122 28.0721 26.3449 28.0721 25.8902 28.5268C25.4354 28.9816 25.4354 29.7489 25.8902 30.2037L27.8228 32.1362C28.0501 32.3636 28.3626 32.4773 28.6754 32.4773C28.9881 32.4773 29.2722 32.3636 29.528 32.1362L32.8817 28.7825C33.3364 28.3278 33.3364 27.5605 32.8817 27.1057C32.3987 26.6795 31.6596 26.6795 31.1764 27.1341V27.1341Z" fill="white"/>
<path d="M38.4523 29.5211C38.4523 24.5759 34.4451 20.5684 29.4996 20.5684C24.5544 20.5684 20.5469 24.5756 20.5469 29.5211C20.5469 34.4663 24.5541 38.4738 29.4996 38.4738C34.4451 38.4738 38.4523 34.4666 38.4523 29.5211ZM29.4996 36.0865C25.8901 36.0865 22.9342 33.1306 22.9342 29.5211C22.9342 25.9115 25.8901 22.9557 29.4996 22.9557C33.1091 22.9557 36.065 25.9115 36.065 29.5211C36.065 33.1306 33.1091 36.0865 29.4996 36.0865Z" fill="white"/>
</svg>
